<svg xmlns="http://www.w3.org/2000/svg" xmlns:xlink="http://www.w3.org/1999/xlink" width="2000" zoomAndPan="magnify" viewBox="0 0 1500 1499.999933" height="2000" preserveAspectRatio="xMidYMid meet" version="1.0"><defs><clipPath id="c0377913f4"><path d="M 192 293.582031 L 1092.542969 293.582031 L 1092.542969 1018.832031 L 192 1018.832031 Z M 192 293.582031 " clip-rule="nonzero"/></clipPath><clipPath id="43a63bfab7"><path d="M 2.074219 2 L 1497 2 L 1497 1496 L 2.074219 1496 Z M 2.074219 2 " clip-rule="nonzero"/></clipPath></defs><g clip-path="url(#c0377913f4)"><path stroke-linecap="butt" transform="matrix(0.75001, 0, 0, 0.749733, 191.791891, 293.580862)" fill="none" stroke-linejoin="miter" d="M 760.147901 835.335014 L 945.900718 826.196348 C 946.260088 826.175508 946.603834 826.227609 946.942371 826.352654 C 947.2757 826.477698 947.577779 826.660055 947.838193 826.910144 C 948.093398 827.155023 948.29652 827.441583 948.437143 827.775035 C 948.577766 828.103276 948.650682 828.447149 948.650682 828.806651 C 947.692361 876.839354 955.452678 925.012732 1000.186477 949.615229 C 1062.451301 983.976404 1136.252434 942.122982 1141.82007 872.441957 C 1144.064833 844.723769 1146.309596 807.663718 1148.554359 761.256593 C 1149.059561 751.221775 1151.418905 741.666294 1155.632393 732.595361 C 1191.506931 655.583605 1202.777619 573.283511 1189.444457 485.689867 C 1181.543517 433.666162 1161.543775 386.045064 1125.398407 351.063877 C 1109.179866 335.349957 1100.086233 325.91431 1098.117508 322.751728 C 1096.742526 321.058417 1095.029006 319.823603 1092.961324 319.042075 L 1077.77402 313.477597 C 1077.154236 313.232718 1076.664659 312.826324 1076.315705 312.258413 C 1075.961543 311.695713 1075.810504 311.075701 1075.867794 310.414008 C 1075.919877 309.747104 1076.169874 309.163563 1076.612577 308.663385 C 1077.055279 308.163207 1077.602147 307.840176 1078.25318 307.704711 C 1084.898928 306.511579 1091.768631 306.808559 1098.872707 308.595653 C 1100.383104 308.960366 1101.846627 308.824901 1103.268483 308.184048 L 1139.830513 291.276995 C 1141.434659 290.495467 1142.648185 289.328386 1143.471091 287.775751 C 1150.252254 274.948273 1149.882467 262.647025 1142.366938 250.872005 C 1123.471348 221.184366 1087.669726 231.010777 1055.164936 236.71593 C 1054.680567 236.799293 1054.196198 236.804503 1053.706621 236.72114 C 1053.222253 236.632567 1052.769133 236.471051 1052.342056 236.226172 C 1051.90977 235.981294 1051.539983 235.668683 1051.222278 235.293549 C 1050.904574 234.918416 1050.659786 234.496391 1050.487913 234.032684 C 1018.259161 146.762073 1002.384365 26.776704 885.771283 16.606422 C 694.247707 -0.0922237 497.432533 3.065149 310.101611 19.216725 C 255.951267 23.890261 218.545498 50.967597 197.879098 100.443521 C 184.868848 131.506649 168.426352 174.17807 148.541191 228.468206 C 148.343277 229.030906 148.062031 229.551924 147.697452 230.026051 C 147.332873 230.505388 146.905795 230.916993 146.416218 231.260865 C 145.921433 231.604738 145.39019 231.865247 144.812072 232.047603 C 144.239163 232.22996 143.650629 232.318533 143.04647 232.318533 C 138.598611 232.318533 131.614326 231.67768 122.083198 230.390764 C 94.593969 226.61338 70.130742 235.752046 56.729873 261.38616 C 51.78202 270.868698 51.849728 279.319619 56.932995 286.744134 C 73.974443 311.690503 89.578408 310.726619 116.786392 305.16214 C 117.432217 305.026676 118.088458 304.990204 118.7447 305.042306 C 119.400941 305.099618 120.041558 305.245503 120.656133 305.479962 C 121.270709 305.71442 121.843618 306.032241 122.369653 306.433426 C 122.895688 306.83461 123.354015 307.298317 123.749844 307.829756 C 124.140464 308.355984 124.45296 308.934315 124.682123 309.549117 C 124.911287 310.169129 125.05191 310.809982 125.098785 311.466465 C 125.145659 312.128159 125.098785 312.779432 124.958161 313.425495 C 124.817538 314.066348 124.593583 314.68115 124.275878 315.25948 C 121.942575 319.521412 119.994684 322.178607 118.437412 323.231065 C 50.21954 368.726407 13.225225 431.764445 7.454466 512.350388 C 2.277449 584.600034 15.152283 660.236301 46.07376 739.264399 C 48.453938 745.219641 50.084125 751.404132 50.953906 757.81787 C 53.839285 778.340792 55.740302 806.767566 56.656957 843.098191 C 57.2507 867.424548 60.438159 887.561916 66.208918 903.505085 C 79.130626 939.101074 124.827955 966.449339 164.202448 961.43714 C 217.529886 954.70037 248.315948 920.683067 249.347185 866.049059 C 249.758638 843.785936 249.940927 832.584036 249.899261 832.448571 C 249.565932 831.901502 249.560724 831.354432 249.888845 830.807363 C 250.222174 830.260293 250.706542 830.004994 251.341951 830.041465 L 427.469892 836.778236 C 427.761555 836.783446 428.037593 836.851178 428.298006 836.971013 C 428.558419 837.090847 428.787583 837.257573 428.985497 837.47119 C 429.178203 837.684808 429.324035 837.929687 429.417783 838.200616 C 429.511532 838.476756 429.553198 838.758106 429.532365 839.044666 C 428.021968 862.13621 434.823964 878.787964 449.943561 889.005138 C 458.370536 894.731132 477.865076 897.159079 508.421975 896.288978 C 561.931702 894.866597 626.988157 894.913489 703.586129 896.424442 C 712.018312 896.565117 724.544192 894.225744 741.179395 889.416743 C 742.642918 888.994718 743.98665 888.333024 745.215801 887.436872 C 746.444952 886.53551 747.481397 885.457001 748.325136 884.190926 C 755.700041 873.015078 758.840626 857.624189 757.741682 838.01305 C 757.720849 837.669177 757.767723 837.335726 757.882305 837.012694 C 757.991678 836.689663 758.163551 836.403102 758.387507 836.147803 C 758.61667 835.897714 758.882292 835.699727 759.184371 835.559052 C 759.491659 835.418377 759.809363 835.340224 760.147901 835.335014 " stroke="#808080" stroke-width="1.034" stroke-opacity="1" stroke-miterlimit="4"/></g><path stroke-linecap="butt" transform="matrix(0.75001, 0, 0, 0.749733, 191.791891, 293.580862)" fill="none" stroke-linejoin="miter" d="M 1126.28902 486.445344 C 1118.044335 455.929286 1112.153786 437.334133 1108.627789 430.644255 C 1094.377973 403.473136 1071.518892 381.897757 1040.045339 365.907696 C 1008.983239 350.105203 953.666243 349.417458 921.781236 349.276783 C 811.600363 348.958962 605.441559 348.818287 303.304824 348.865179 C 257.899158 348.865179 222.831901 351.522373 198.092636 356.836763 C 153.791123 366.319301 118.676992 392.64116 92.745034 435.797128 C 85.18784 448.442249 78.521259 473.388619 71.786971 491.874358 C 71.734888 492.025453 71.734888 492.176549 71.792179 492.332854 C 71.854678 492.48916 71.953635 492.603784 72.08905 492.681937 C 72.229673 492.754879 72.370297 492.7653 72.51092 492.718408 C 72.651543 492.666306 72.755708 492.567313 72.818208 492.421427 C 95.994993 456.914011 129.989347 440.929161 174.796061 444.456457 C 288.80501 453.459658 290.726861 609.796492 191.769801 642.641504 C 158.712935 653.640206 117.140554 646.283423 91.094014 618.935158 C 84.312851 611.786783 80.099364 607.415438 78.453552 605.8107 C 78.182722 605.544981 77.859809 605.383465 77.479606 605.331363 C 77.104611 605.279261 76.755657 605.346994 76.422328 605.52935 C 76.088999 605.711707 75.84421 605.972216 75.682754 606.316088 C 75.526506 606.659961 75.48484 607.019463 75.562964 607.389387 C 83.62536 650.95696 90.844017 681.426126 97.213727 698.786465 C 113.911429 744.281808 220.977759 760.980453 263.998038 764.278501 C 314.804676 768.170509 369.22585 770.13996 427.271978 770.186851 C 427.803221 770.186851 428.308423 770.087858 428.798 769.884661 C 429.287577 769.681463 429.719863 769.394903 430.08965 769.01977 C 430.464645 768.644636 430.756308 768.217401 430.954222 767.727644 C 431.157344 767.237886 431.26151 766.732498 431.26151 766.201059 L 431.26151 734.658595 C 431.26151 734.137576 431.162553 733.642608 430.95943 733.158061 C 430.761516 732.678724 430.48027 732.256699 430.110483 731.891986 C 429.745904 731.522063 429.324035 731.240713 428.844874 731.042726 C 428.360505 730.839528 427.860512 730.740535 427.344893 730.740535 C 405.579549 730.698853 379.376761 728.958651 348.726114 725.519929 C 329.439904 723.368122 312.216167 718.668534 297.049696 711.431586 C 264.065745 695.83229 264.477199 654.255008 276.508294 623.811892 C 323.783727 504.514269 475.24011 481.5634 585.884519 479.432434 C 668.966783 477.786015 780.704928 473.247944 853.407117 531.388407 C 902.885646 570.897245 932.229019 629.996383 915.666732 693.565859 C 915.072989 695.811449 913.994878 697.80174 912.437607 699.541942 C 903.41689 709.8529 893.932637 716.037391 883.990056 718.095414 C 841.886432 726.848526 799.673433 730.740535 757.340645 729.781861 C 757.147939 729.77144 756.955233 729.787071 756.767736 729.828752 C 756.580238 729.865224 756.397949 729.922536 756.226076 730.005899 C 756.048995 730.084051 755.887539 730.183045 755.736499 730.302879 C 755.585459 730.422713 755.450044 730.558178 755.330254 730.704064 C 755.210464 730.855159 755.106299 731.016675 755.022967 731.193821 C 754.944843 731.365757 754.882343 731.548114 754.840677 731.73568 C 754.799011 731.923247 754.783386 732.110814 754.788595 732.303591 C 754.788595 732.496367 754.814636 732.683934 754.866719 732.871501 C 757.752098 744.740304 757.908346 756.624738 755.340671 768.535222 C 755.299005 768.73842 755.278172 768.941617 755.28338 769.144814 C 755.288588 769.348011 755.31463 769.551209 755.366712 769.749196 C 755.418795 769.947183 755.486502 770.13996 755.580251 770.322316 C 755.674 770.504673 755.788582 770.671399 755.923997 770.827704 C 756.054203 770.98401 756.205243 771.119475 756.366699 771.244519 C 756.533364 771.364353 756.710445 771.468557 756.897942 771.54671 C 757.08544 771.630073 757.278146 771.687385 757.481268 771.723856 C 757.684391 771.765538 757.887513 771.775958 758.090635 771.765538 C 835.699011 768.972878 907.442879 763.637648 973.32224 755.754637 C 1019.087275 750.257891 1083.341657 742.906319 1102.653908 697.963256 C 1111.356921 677.758156 1119.101613 648.893726 1125.882776 611.375179 C 1125.966108 610.864581 1125.882776 610.374823 1125.643195 609.916327 C 1125.398407 609.45783 1125.044245 609.113958 1124.575501 608.89513 C 1124.106757 608.671092 1123.61718 608.61378 1123.111978 608.712774 C 1122.601568 608.816978 1122.17449 609.061856 1121.825536 609.45262 C 1056.201381 687.516834 930.442583 631.304139 943.364292 530.836127 C 954.082904 446.655155 1081.695844 405.974025 1125.674445 486.716274 C 1125.783819 486.87779 1125.924442 486.919471 1126.101523 486.841318 C 1126.278604 486.763166 1126.346311 486.632911 1126.294229 486.445344 " stroke="#808080" stroke-width="1.034" stroke-opacity="1" stroke-miterlimit="4"/><path stroke-linecap="butt" transform="matrix(0.75001, 0, 0, 0.749733, 191.791891, 293.580862)" fill="none" stroke-linejoin="miter" d="M 192.873954 517.18544 C 191.988548 516.205925 191.056269 515.273302 190.077115 514.387571 C 189.092752 513.501839 188.071932 512.668209 187.004238 511.886681 C 185.936543 511.105154 184.832391 510.375728 183.69178 509.703614 C 182.545962 509.03671 181.374102 508.421908 180.165784 507.864418 C 178.957466 507.312138 177.723107 506.817171 176.467915 506.384725 C 175.207514 505.95228 173.926281 505.587567 172.624214 505.280166 C 171.322148 504.972765 170.009665 504.733096 168.681557 504.56116 C 167.353449 504.384014 166.014924 504.2746 164.671192 504.227708 C 163.327459 504.186027 161.983726 504.206868 160.634785 504.295441 C 159.291053 504.378804 157.94732 504.535109 156.608796 504.748727 C 155.275479 504.967555 153.947371 505.254115 152.634888 505.597987 C 151.322405 505.94707 150.030755 506.353464 148.749522 506.827591 C 147.473496 507.301718 146.223513 507.833157 144.994362 508.427118 C 143.765211 509.021079 142.56731 509.672352 141.39545 510.380938 C 140.228798 511.089523 139.098604 511.85021 137.99966 512.668209 C 136.900716 513.486208 135.843438 514.351099 134.827826 515.268092 C 133.812214 516.185085 132.843476 517.148969 131.921613 518.159745 C 130.99975 519.165311 130.124761 520.217768 129.301855 521.306697 C 128.478949 522.400836 127.708126 523.526236 126.994593 524.688108 C 126.281061 525.849979 125.624819 527.043112 125.025869 528.267505 C 124.426918 529.486689 123.885258 530.737134 123.411306 532.008419 C 122.932146 533.279704 122.515484 534.56662 122.166531 535.874377 C 121.812368 537.182133 121.525914 538.50031 121.301958 539.834118 C 121.078003 541.162715 120.921755 542.501733 120.828006 543.840751 C 120.739466 545.184979 120.713424 546.523996 120.75509 547.863014 C 120.796757 549.202032 120.900922 550.535839 121.072795 551.859227 C 121.244667 553.187824 121.484248 554.495581 121.786327 555.792917 C 122.088407 557.090253 122.452985 558.366749 122.885271 559.622403 C 123.312349 560.883268 123.807134 562.112872 124.359211 563.316425 C 124.911287 564.519978 125.520654 565.69227 126.19252 566.833301 C 126.864387 567.974331 127.588336 569.078891 128.369576 570.141769 C 129.156024 571.209857 129.989347 572.231053 130.874752 573.210568 C 131.760157 574.190083 132.692437 575.122706 133.671591 576.008438 C 134.655953 576.894169 135.676773 577.727799 136.744468 578.509327 C 137.812163 579.296065 138.916315 580.020281 140.056925 580.692395 C 141.197536 581.364509 142.374604 581.979311 143.582922 582.53159 C 144.786031 583.08908 146.02039 583.578838 147.280791 584.011283 C 148.541191 584.443728 149.822425 584.813652 151.119283 585.115842 C 152.421349 585.423243 153.739041 585.662912 155.067149 585.840058 C 156.395257 586.017205 157.728573 586.126618 159.072305 586.1683 C 160.421246 586.215192 161.764979 586.194351 163.108712 586.105778 C 164.457653 586.017205 165.801386 585.866109 167.134702 585.647281 C 168.473226 585.428454 169.796126 585.147104 171.108609 584.798021 C 172.421092 584.454149 173.71795 584.042544 174.993976 583.568417 C 176.270001 583.099501 177.525193 582.562851 178.754344 581.9741 C 179.983495 581.380139 181.181396 580.728866 182.348048 580.020281 C 183.519907 579.311695 184.650101 578.545798 185.749045 577.733009 C 186.84799 576.91501 187.900059 576.044909 188.915671 575.127916 C 189.931283 574.210924 190.905229 573.247039 191.827092 572.241473 C 192.748955 571.230697 193.623944 570.17824 194.44685 569.089311 C 195.269756 568.000382 196.04058 566.869772 196.754112 565.7079 C 197.467645 564.546029 198.123886 563.352896 198.722837 562.133713 C 199.321787 560.909319 199.858239 559.664085 200.337399 558.3928 C 200.81656 557.121514 201.233221 555.829388 201.582175 554.521632 C 201.936337 553.213875 202.222792 551.895698 202.446747 550.567101 C 202.670703 549.233293 202.826951 547.899485 202.920699 546.555258 C 203.00924 545.21624 203.035281 543.872012 202.993615 542.532994 C 202.951949 541.193976 202.847784 539.860169 202.675911 538.536782 C 202.504038 537.213394 202.264458 535.900428 201.962378 534.603091 C 201.660299 533.305755 201.29572 532.02926 200.863434 530.773605 C 200.436356 529.51795 199.941571 528.288346 199.389495 527.084793 C 198.837419 525.87603 198.228051 524.703738 197.556185 523.562708 C 196.884319 522.426887 196.16037 521.322328 195.37913 520.25424 C 194.592682 519.191362 193.759359 518.170165 192.873954 517.18544 " stroke="#808080" stroke-width="1.034" stroke-opacity="1" stroke-miterlimit="4"/><path stroke-linecap="butt" transform="matrix(0.75001, 0, 0, 0.749733, 191.791891, 293.580862)" fill="none" stroke-linejoin="miter" d="M 1084.648931 546.091551 C 1084.648931 544.736903 1084.581224 543.387465 1084.445809 542.038026 C 1084.315602 540.688588 1084.117688 539.349571 1083.852067 538.020973 C 1083.586445 536.692376 1083.258324 535.379409 1082.867704 534.082073 C 1082.471876 532.784737 1082.013549 531.513451 1081.49793 530.263007 C 1080.977104 529.007352 1080.398986 527.788168 1079.763578 526.589826 C 1079.122961 525.396693 1078.425053 524.234822 1077.675063 523.109422 C 1076.919864 521.984021 1076.117791 520.895093 1075.258427 519.847845 C 1074.399063 518.800598 1073.487617 517.800242 1072.529296 516.841568 C 1071.570975 515.882894 1070.570988 514.971111 1069.524126 514.111431 C 1068.472056 513.25175 1067.388737 512.449381 1066.258543 511.693905 C 1065.133558 510.943638 1063.972114 510.245473 1062.779421 509.60983 C 1061.58152 508.968977 1060.362786 508.390647 1059.107594 507.869628 C 1057.85761 507.35382 1056.581584 506.895323 1055.284726 506.504559 C 1053.987868 506.108585 1052.675385 505.780344 1051.347277 505.519834 C 1050.019169 505.254115 1048.680644 505.056128 1047.331703 504.920663 C 1045.982763 504.790408 1044.633822 504.722676 1043.279672 504.722676 C 1041.920315 504.722676 1040.571374 504.790408 1039.222433 504.920663 C 1037.873492 505.056128 1036.534967 505.254115 1035.20686 505.519834 C 1033.878752 505.780344 1032.566269 506.113796 1031.26941 506.504559 C 1029.972552 506.900534 1028.696527 507.35382 1027.446543 507.874838 C 1026.196559 508.390647 1024.972616 508.968977 1023.774715 509.60983 C 1022.582022 510.245473 1021.420579 510.943638 1020.295593 511.693905 C 1019.170608 512.449381 1018.08208 513.25696 1017.035219 514.116641 C 1015.988357 514.976322 1014.983162 515.882894 1014.024841 516.841568 C 1013.06652 517.800242 1012.160281 518.800598 1011.300917 519.847845 C 1010.441553 520.895093 1009.634272 521.984021 1008.879074 523.109422 C 1008.129083 524.234822 1007.431175 525.396693 1006.795767 526.589826 C 1006.15515 527.788168 1005.577033 529.007352 1005.056206 530.263007 C 1004.540588 531.513451 1004.08226 532.789947 1003.69164 534.082073 C 1003.295812 535.379409 1002.967691 536.692376 1002.70207 538.020973 C 1002.441656 539.349571 1002.238534 540.688588 1002.108327 542.038026 C 1001.972912 543.387465 1001.910413 544.736903 1001.910413 546.091551 C 1001.910413 547.446199 1001.972912 548.800848 1002.108327 550.145076 C 1002.238534 551.494514 1002.441656 552.833531 1002.70207 554.162129 C 1002.967691 555.490726 1003.295812 556.803693 1003.69164 558.101029 C 1004.08226 559.398365 1004.540588 560.669651 1005.056206 561.925306 C 1005.577033 563.17575 1006.15515 564.400144 1006.795767 565.593276 C 1007.431175 566.786409 1008.129083 567.94828 1008.879074 569.07368 C 1009.634272 570.199081 1010.441553 571.288009 1011.300917 572.335257 C 1012.160281 573.382504 1013.06652 574.38807 1014.024841 575.341534 C 1014.983162 576.300208 1015.988357 577.211991 1017.035219 578.071671 C 1018.08208 578.931352 1019.170608 579.733721 1020.295593 580.489197 C 1021.420579 581.239464 1022.582022 581.937629 1023.774715 582.578482 C 1024.972616 583.214125 1026.196559 583.792455 1027.446543 584.313474 C 1028.696527 584.829282 1029.972552 585.287779 1031.26941 585.678542 C 1032.566269 586.074517 1033.878752 586.402758 1035.20686 586.668478 C 1036.534967 586.928987 1037.873492 587.126974 1039.222433 587.262439 C 1040.571374 587.392694 1041.920315 587.460426 1043.279672 587.460426 C 1044.633822 587.460426 1045.982763 587.392694 1047.331703 587.262439 C 1048.680644 587.126974 1050.019169 586.928987 1051.347277 586.668478 C 1052.675385 586.402758 1053.987868 586.074517 1055.284726 585.678542 C 1056.581584 585.287779 1057.85761 584.829282 1059.107594 584.313474 C 1060.362786 583.792455 1061.58152 583.214125 1062.779421 582.578482 C 1063.972114 581.937629 1065.133558 581.244674 1066.258543 580.489197 C 1067.388737 579.738931 1068.472056 578.931352 1069.524126 578.071671 C 1070.570988 577.211991 1071.570975 576.305418 1072.529296 575.346744 C 1073.487617 574.38807 1074.399063 573.382504 1075.258427 572.335257 C 1076.117791 571.288009 1076.919864 570.204291 1077.675063 569.07368 C 1078.425053 567.94828 1079.122961 566.786409 1079.763578 565.593276 C 1080.398986 564.400144 1080.977104 563.17575 1081.49793 561.925306 C 1082.013549 560.669651 1082.471876 559.398365 1082.867704 558.101029 C 1083.258324 556.803693 1083.586445 555.490726 1083.852067 554.162129 C 1084.117688 552.833531 1084.315602 551.494514 1084.445809 550.145076 C 1084.581224 548.800848 1084.648931 547.446199 1084.648931 546.091551 " stroke="#808080" stroke-width="1.034" stroke-opacity="1" stroke-miterlimit="4"/><path stroke-linecap="butt" transform="matrix(0.75001, 0, 0, 0.749733, 191.791891, 293.580862)" fill="none" stroke-linejoin="miter" d="M 692.789393 746.475296 C 692.789393 746.230417 692.742518 745.990749 692.643561 745.766711 C 692.549813 745.537462 692.414398 745.339475 692.242525 745.162329 C 692.065444 744.990393 691.862321 744.854928 691.638366 744.761145 C 691.409202 744.672572 691.169622 744.62568 690.924833 744.62568 L 495.213811 745.308214 C 494.969023 745.308214 494.729443 745.360316 494.500279 745.454099 C 494.276323 745.547883 494.073201 745.683348 493.901328 745.855284 C 493.729455 746.03243 493.594041 746.235627 493.500292 746.459665 C 493.406543 746.688913 493.359669 746.923372 493.364877 747.173461 L 493.661748 834.720212 C 493.661748 834.965091 493.708622 835.20476 493.807579 835.428798 C 493.901328 835.658046 494.036743 835.856033 494.208616 836.027969 C 494.385697 836.205115 494.588819 836.33537 494.812775 836.429153 C 495.041939 836.522937 495.281519 836.569828 495.526307 836.569828 L 691.237329 835.887294 C 691.482118 835.887294 691.721698 835.840402 691.950862 835.741409 C 692.174817 835.647625 692.37794 835.512161 692.549813 835.340224 C 692.721685 835.163078 692.8571 834.965091 692.950849 834.735843 C 693.044598 834.506595 693.091472 834.272136 693.086264 834.022047 L 692.789393 746.475296 " stroke="#808080" stroke-width="1.034" stroke-opacity="1" stroke-miterlimit="4"/><path stroke-linecap="butt" transform="matrix(0.75001, 0, 0, 0.749733, 191.791891, 293.580862)" fill="none" stroke-linejoin="miter" d="M 597.009376 286.879599 C 786.126733 286.561777 886.937935 286.332529 899.442982 286.191854 C 929.31239 285.967816 962.551545 286.973382 999.15524 289.218972 C 999.45732 289.229392 999.743774 289.17208 1000.019813 289.047036 C 1000.295851 288.921991 1000.525014 288.734425 1000.707304 288.499966 C 1000.894801 288.260298 1001.014591 287.989368 1001.066674 287.692388 C 1001.118757 287.395407 1001.103132 287.103637 1001.009383 286.811866 C 987.816845 244.984495 972.952453 202.448538 956.410999 159.198786 C 948.577766 138.722756 939.025806 120.763246 927.755118 105.325465 C 909.682434 80.51456 881.09426 79.899759 845.912422 77.216513 C 762.486412 70.96429 679.815602 70.896557 596.597923 71.032022 C 513.442743 71.167487 430.777141 71.584302 347.278216 78.180397 C 312.164085 80.926165 283.575911 81.681642 265.576143 106.560279 C 254.352329 122.044951 244.868076 140.025302 237.123384 160.506543 C 220.769428 203.844868 206.061284 246.453767 193.00416 288.32282 C 192.91562 288.61459 192.899995 288.906361 192.952078 289.203341 C 193.00416 289.500322 193.12395 289.771252 193.30624 290.01092 C 193.493737 290.250589 193.722901 290.432945 193.998939 290.55799 C 194.269769 290.688244 194.561432 290.745556 194.863511 290.729926 C 231.467207 288.348871 264.706362 287.223471 294.570561 287.364146 C 307.080817 287.405827 407.892019 287.244312 597.009376 286.879599 " stroke="#747474" stroke-width="1.034" stroke-opacity="1" stroke-miterlimit="4"/><path stroke-linecap="butt" transform="matrix(0.75001, 0, 0, 0.749733, 191.791891, 293.580862)" fill="none" stroke-linejoin="miter" d="M 857.526855 655.15116 C 846.625954 596.463627 811.256618 561.873204 751.424055 551.3851 C 700.888247 542.449631 647.607683 539.104692 591.582362 541.350282 C 525.265508 543.960585 458.05804 550.629623 404.459771 575.023713 C 370.00709 590.64385 346.27302 615.934091 333.262771 650.889228 C 332.971108 651.681176 332.830485 652.504385 332.840902 653.348435 C 332.851318 654.192485 333.007566 655.005274 333.320062 655.792012 C 333.632558 656.578751 334.070053 657.282126 334.642962 657.907348 C 335.210663 658.53257 335.877321 659.032748 336.63252 659.413092 C 339.288735 660.694797 343.340767 661.632631 348.793821 662.226592 C 377.381995 665.389175 413.230492 667.587873 456.34452 668.827897 C 537.614307 671.208952 633.206827 670.932812 743.111662 667.999478 C 782.788234 666.993912 819.574219 664.565965 853.474824 660.715638 C 853.792528 660.679167 854.105024 660.611434 854.407104 660.512441 C 854.709183 660.408237 855.000846 660.277982 855.282093 660.116467 C 855.558131 659.954951 855.813336 659.762174 856.052916 659.548556 C 856.292496 659.334939 856.506035 659.09527 856.698741 658.834761 C 856.886239 658.574252 857.047695 658.292902 857.18311 658.001131 C 857.318525 657.704151 857.417482 657.39675 857.490397 657.078928 C 857.563313 656.766317 857.599771 656.443286 857.604979 656.115044 C 857.615396 655.792012 857.584146 655.468981 857.526855 655.15116 " stroke="#575759" stroke-width="1.034" stroke-opacity="1" stroke-miterlimit="4"/><path fill="#000000" d="M 761.914062 919.859375 C 761.664062 919.863281 761.421875 919.921875 761.195312 920.027344 C 760.964844 920.132812 760.765625 920.28125 760.59375 920.46875 C 760.425781 920.660156 760.296875 920.875 760.214844 921.117188 C 760.128906 921.359375 760.097656 921.609375 760.109375 921.867188 C 760.933594 936.570312 758.578125 948.109375 753.046875 956.492188 C 752.414062 957.4375 751.636719 958.246094 750.714844 958.921875 C 749.796875 959.59375 748.785156 960.089844 747.6875 960.40625 C 735.214844 964.011719 725.816406 965.765625 719.492188 965.660156 C 662.042969 964.527344 613.253906 964.492188 573.117188 965.558594 C 550.199219 966.210938 535.578125 964.390625 529.257812 960.097656 C 517.921875 952.4375 512.816406 939.953125 513.953125 922.640625 C 513.964844 922.425781 513.9375 922.214844 513.867188 922.007812 C 513.792969 921.804688 513.683594 921.621094 513.539062 921.460938 C 513.390625 921.300781 513.21875 921.175781 513.023438 921.085938 C 512.828125 920.996094 512.621094 920.945312 512.402344 920.941406 L 380.304688 915.890625 C 379.828125 915.863281 379.460938 916.050781 379.214844 916.464844 C 378.96875 916.875 378.972656 917.285156 379.222656 917.695312 C 379.277344 917.796875 379.136719 926.195312 378.808594 942.890625 C 378.035156 983.847656 354.945312 1009.351562 314.949219 1014.402344 C 285.417969 1018.160156 251.144531 997.65625 241.453125 970.96875 C 237.125 959.015625 234.738281 943.917969 234.292969 925.679688 C 233.605469 898.441406 232.175781 877.128906 230.011719 861.742188 C 229.359375 856.933594 228.140625 852.296875 226.351562 847.832031 C 203.160156 788.582031 193.503906 731.875 197.386719 677.707031 C 201.71875 617.289062 229.464844 570.027344 280.628906 535.921875 C 281.796875 535.128906 283.253906 533.136719 285.007812 529.945312 C 285.242188 529.507812 285.414062 529.050781 285.515625 528.566406 C 285.621094 528.082031 285.65625 527.59375 285.621094 527.097656 C 285.589844 526.605469 285.484375 526.125 285.308594 525.664062 C 285.140625 525.199219 284.90625 524.765625 284.609375 524.371094 C 284.316406 523.972656 283.972656 523.625 283.578125 523.324219 C 283.183594 523.027344 282.753906 522.789062 282.292969 522.609375 C 281.828125 522.433594 281.351562 522.324219 280.859375 522.285156 C 280.363281 522.242188 279.875 522.269531 279.390625 522.371094 C 258.980469 526.542969 247.277344 527.265625 234.496094 508.5625 C 230.683594 502.996094 230.632812 496.660156 234.347656 489.550781 C 244.394531 470.332031 262.746094 463.480469 283.363281 466.3125 C 290.507812 467.277344 295.746094 467.757812 299.082031 467.757812 C 299.535156 467.757812 299.976562 467.691406 300.410156 467.554688 C 300.839844 467.421875 301.242188 467.222656 301.609375 466.964844 C 301.976562 466.707031 302.300781 466.398438 302.574219 466.042969 C 302.84375 465.683594 303.054688 465.292969 303.203125 464.871094 C 318.117188 424.167969 330.453125 392.175781 340.210938 368.886719 C 355.707031 331.792969 383.761719 311.492188 424.378906 307.988281 C 564.875 295.882812 712.488281 293.511719 856.132812 306.03125 C 943.597656 313.65625 955.503906 403.613281 979.675781 469.046875 C 979.800781 469.390625 979.980469 469.707031 980.222656 469.988281 C 980.457031 470.269531 980.738281 470.503906 981.058594 470.6875 C 981.382812 470.871094 981.722656 470.996094 982.089844 471.058594 C 982.453125 471.121094 982.816406 471.121094 983.179688 471.054688 C 1007.558594 466.777344 1034.410156 459.410156 1048.585938 481.667969 C 1054.21875 490.496094 1054.496094 499.71875 1049.410156 509.335938 C 1048.792969 510.5 1047.882812 511.375 1046.679688 511.960938 L 1019.257812 524.636719 C 1018.195312 525.117188 1017.09375 525.222656 1015.960938 524.945312 C 1010.632812 523.605469 1005.480469 523.382812 1000.496094 524.277344 C 1000.007812 524.378906 999.597656 524.621094 999.265625 524.996094 C 998.933594 525.371094 998.746094 525.808594 998.707031 526.308594 C 998.664062 526.804688 998.777344 527.269531 999.042969 527.691406 C 999.308594 528.117188 999.675781 528.421875 1000.140625 528.605469 L 1011.53125 532.777344 C 1013.078125 533.363281 1014.367188 534.289062 1015.394531 535.558594 C 1016.871094 537.929688 1023.695312 545.003906 1035.855469 556.785156 C 1062.96875 583.011719 1077.964844 618.714844 1083.890625 657.71875 C 1093.890625 723.390625 1085.4375 785.097656 1058.53125 842.835938 C 1055.371094 849.636719 1053.601562 856.796875 1053.222656 864.320312 C 1051.539062 899.113281 1049.855469 926.898438 1048.171875 947.679688 C 1043.996094 999.921875 988.644531 1031.300781 941.949219 1005.539062 C 908.394531 987.09375 902.570312 950.976562 903.292969 914.964844 C 903.292969 914.695312 903.242188 914.4375 903.136719 914.191406 C 903.03125 913.945312 902.882812 913.726562 902.683594 913.542969 C 902.492188 913.355469 902.269531 913.21875 902.015625 913.125 C 901.761719 913.03125 901.503906 912.992188 901.230469 913.007812 Z M 639.558594 508.664062 C 781.398438 508.425781 857.003906 508.253906 866.386719 508.148438 C 888.789062 507.980469 913.714844 508.734375 941.171875 510.417969 C 941.398438 510.425781 941.613281 510.386719 941.820312 510.289062 C 942.027344 510.195312 942.199219 510.054688 942.335938 509.878906 C 942.476562 509.699219 942.5625 509.496094 942.605469 509.273438 C 942.640625 509.050781 942.628906 508.832031 942.5625 508.613281 C 932.667969 477.253906 921.519531 445.363281 909.113281 412.9375 C 903.234375 397.585938 896.074219 384.121094 887.621094 372.546875 C 874.066406 353.945312 852.625 353.484375 826.238281 351.472656 C 763.664062 346.785156 701.664062 346.734375 639.246094 346.835938 C 576.882812 346.9375 514.878906 347.25 452.257812 352.195312 C 425.921875 354.253906 404.480469 354.820312 390.976562 373.472656 C 382.558594 385.082031 375.449219 398.5625 369.636719 413.917969 C 357.371094 446.410156 346.34375 478.355469 336.550781 509.746094 C 336.484375 509.964844 336.46875 510.183594 336.507812 510.40625 C 336.550781 510.628906 336.640625 510.832031 336.78125 511.011719 C 336.917969 511.191406 337.089844 511.328125 337.292969 511.421875 C 337.5 511.519531 337.714844 511.5625 337.941406 511.550781 C 365.398438 509.765625 390.324219 508.921875 412.726562 509.027344 C 422.109375 509.058594 497.71875 508.9375 639.558594 508.664062 Z M 1036.523438 658.285156 C 1030.339844 635.40625 1025.921875 621.464844 1023.277344 616.449219 C 1012.589844 596.082031 995.445312 579.902344 971.839844 567.914062 C 948.542969 556.066406 907.054688 555.550781 883.140625 555.445312 C 800.503906 555.207031 645.882812 555.101562 419.277344 555.136719 C 385.222656 555.136719 358.921875 557.128906 340.367188 561.113281 C 307.140625 568.222656 280.800781 587.957031 261.355469 620.3125 C 255.683594 629.792969 250.6875 648.496094 245.636719 662.355469 C 245.59375 662.46875 245.597656 662.582031 245.640625 662.699219 C 245.6875 662.816406 245.761719 662.902344 245.863281 662.960938 C 245.96875 663.015625 246.074219 663.023438 246.179688 662.988281 C 246.289062 662.949219 246.363281 662.875 246.40625 662.765625 C 263.792969 636.144531 289.289062 624.160156 322.894531 626.804688 C 408.402344 633.554688 409.84375 750.765625 335.625 775.390625 C 310.832031 783.636719 279.652344 778.121094 260.117188 757.617188 C 255.03125 752.257812 251.871094 748.980469 250.632812 747.777344 C 250.429688 747.578125 250.1875 747.457031 249.90625 747.417969 C 249.625 747.378906 249.359375 747.429688 249.109375 747.566406 C 248.859375 747.703125 248.675781 747.898438 248.558594 748.15625 C 248.4375 748.414062 248.410156 748.683594 248.46875 748.960938 C 254.515625 781.625 259.929688 804.46875 264.703125 817.484375 C 277.226562 851.59375 357.53125 864.113281 389.792969 866.585938 C 427.902344 869.503906 468.71875 870.980469 512.253906 871.015625 C 512.648438 871.015625 513.027344 870.941406 513.394531 870.789062 C 513.761719 870.636719 514.085938 870.421875 514.367188 870.140625 C 514.644531 869.859375 514.859375 869.539062 515.015625 869.171875 C 515.164062 868.804688 515.242188 868.425781 515.242188 868.027344 L 515.242188 844.378906 C 515.242188 843.988281 515.164062 843.617188 515.019531 843.253906 C 514.867188 842.894531 514.65625 842.578125 514.382812 842.304688 C 514.101562 842.027344 513.785156 841.816406 513.429688 841.667969 C 513.066406 841.515625 512.695312 841.441406 512.308594 841.441406 C 495.984375 841.410156 476.328125 840.105469 453.34375 837.527344 C 438.878906 835.914062 425.960938 832.390625 414.585938 826.964844 C 389.847656 815.269531 390.15625 784.097656 399.175781 761.273438 C 434.636719 671.832031 548.230469 654.625 631.210938 653.027344 C 693.523438 651.792969 777.328125 648.390625 831.859375 691.980469 C 868.96875 721.605469 890.976562 765.910156 878.554688 813.570312 C 878.109375 815.253906 877.300781 816.746094 876.132812 818.050781 C 869.367188 825.78125 862.253906 830.417969 854.796875 831.960938 C 823.21875 838.523438 791.554688 841.441406 759.808594 840.722656 C 759.660156 840.714844 759.519531 840.726562 759.378906 840.757812 C 759.234375 840.785156 759.097656 840.828125 758.972656 840.890625 C 758.839844 840.949219 758.714844 841.023438 758.601562 841.113281 C 758.488281 841.203125 758.386719 841.304688 758.296875 841.414062 C 758.207031 841.527344 758.128906 841.648438 758.070312 841.78125 C 758.007812 841.910156 757.960938 842.046875 757.929688 842.1875 C 757.898438 842.328125 757.886719 842.46875 757.886719 842.613281 C 757.890625 842.757812 757.914062 842.898438 757.949219 843.039062 C 760.113281 851.9375 760.234375 860.847656 758.308594 869.777344 C 758.277344 869.929688 758.261719 870.082031 758.261719 870.234375 C 758.269531 870.386719 758.289062 870.539062 758.324219 870.6875 C 758.363281 870.835938 758.417969 870.980469 758.488281 871.117188 C 758.558594 871.253906 758.644531 871.378906 758.742188 871.496094 C 758.839844 871.613281 758.953125 871.714844 759.078125 871.808594 C 759.199219 871.898438 759.332031 871.976562 759.476562 872.035156 C 759.613281 872.097656 759.761719 872.140625 759.914062 872.171875 C 760.0625 872.199219 760.214844 872.207031 760.371094 872.199219 C 818.574219 870.105469 872.386719 866.105469 921.796875 860.195312 C 956.121094 856.074219 1004.3125 850.5625 1018.796875 816.867188 C 1025.324219 801.71875 1031.128906 780.082031 1036.21875 751.949219 C 1036.277344 751.566406 1036.21875 751.199219 1036.035156 750.855469 C 1035.855469 750.511719 1035.589844 750.253906 1035.238281 750.089844 C 1034.886719 749.921875 1034.519531 749.878906 1034.136719 749.953125 C 1033.757812 750.03125 1033.4375 750.214844 1033.175781 750.507812 C 983.957031 809.035156 889.636719 766.890625 899.324219 691.566406 C 907.367188 628.453125 1003.078125 597.953125 1036.0625 658.488281 C 1036.144531 658.609375 1036.25 658.644531 1036.382812 658.582031 C 1036.519531 658.523438 1036.566406 658.425781 1036.527344 658.285156 Z M 336.453125 681.332031 C 335.789062 680.597656 335.085938 679.898438 334.351562 679.234375 C 333.613281 678.570312 332.847656 677.945312 332.046875 677.359375 C 331.25 676.773438 330.421875 676.226562 329.5625 675.722656 C 328.707031 675.21875 327.828125 674.761719 326.921875 674.34375 C 326.015625 673.929688 325.089844 673.558594 324.144531 673.234375 C 323.199219 672.910156 322.238281 672.632812 321.261719 672.40625 C 320.289062 672.175781 319.304688 671.996094 318.308594 671.863281 C 317.308594 671.734375 316.308594 671.648438 315.300781 671.617188 C 314.292969 671.582031 313.285156 671.601562 312.273438 671.664062 C 311.261719 671.730469 310.257812 671.84375 309.253906 672.007812 C 308.25 672.171875 307.257812 672.382812 306.269531 672.644531 C 305.289062 672.90625 304.316406 673.210938 303.359375 673.566406 C 302.402344 673.921875 301.460938 674.320312 300.539062 674.765625 C 299.617188 675.210938 298.722656 675.699219 297.84375 676.230469 C 296.964844 676.761719 296.117188 677.332031 295.296875 677.945312 C 294.472656 678.558594 293.679688 679.207031 292.917969 679.894531 C 292.15625 680.582031 291.429688 681.304688 290.738281 682.0625 C 290.042969 682.816406 289.386719 683.605469 288.769531 684.421875 C 288.152344 685.242188 287.578125 686.085938 287.042969 686.957031 C 286.503906 687.828125 286.011719 688.722656 285.5625 689.640625 C 285.113281 690.554688 284.710938 691.492188 284.351562 692.445312 C 283.996094 693.398438 283.683594 694.363281 283.414062 695.34375 C 283.152344 696.324219 282.9375 697.3125 282.773438 698.3125 C 282.605469 699.308594 282.488281 700.3125 282.417969 701.316406 C 282.351562 702.324219 282.332031 703.328125 282.359375 704.332031 C 282.390625 705.335938 282.46875 706.335938 282.597656 707.328125 C 282.730469 708.324219 282.90625 709.304688 283.132812 710.277344 C 283.363281 711.25 283.632812 712.207031 283.957031 713.148438 C 284.277344 714.09375 284.644531 715.015625 285.0625 715.917969 C 285.476562 716.820312 285.933594 717.699219 286.4375 718.554688 C 286.941406 719.410156 287.488281 720.238281 288.074219 721.035156 C 288.660156 721.835938 289.285156 722.601562 289.949219 723.335938 C 290.613281 724.070312 291.316406 724.769531 292.050781 725.433594 C 292.785156 726.097656 293.550781 726.722656 294.351562 727.308594 C 295.152344 727.898438 295.980469 728.441406 296.835938 728.945312 C 297.695312 729.449219 298.574219 729.910156 299.476562 730.324219 C 300.382812 730.742188 301.308594 731.109375 302.253906 731.433594 C 303.199219 731.757812 304.160156 732.035156 305.136719 732.261719 C 306.113281 732.492188 307.097656 732.671875 308.09375 732.804688 C 309.09375 732.9375 310.097656 733.019531 311.101562 733.050781 C 312.109375 733.085938 313.117188 733.070312 314.128906 733.003906 C 315.140625 732.9375 316.144531 732.824219 317.148438 732.660156 C 318.148438 732.496094 319.144531 732.285156 320.128906 732.023438 C 321.113281 731.765625 322.082031 731.457031 323.039062 731.101562 C 323.996094 730.75 324.9375 730.347656 325.859375 729.90625 C 326.78125 729.460938 327.679688 728.972656 328.554688 728.441406 C 329.433594 727.910156 330.289062 727.335938 331.109375 726.726562 C 331.933594 726.113281 332.722656 725.460938 333.484375 724.773438 C 334.246094 724.085938 334.972656 723.363281 335.667969 722.609375 C 336.359375 721.851562 337.011719 721.0625 337.628906 720.246094 C 338.246094 719.429688 338.820312 718.585938 339.355469 717.710938 C 339.894531 716.839844 340.386719 715.945312 340.835938 715.03125 C 341.285156 714.113281 341.6875 713.179688 342.050781 712.226562 C 342.40625 711.273438 342.71875 710.304688 342.980469 709.324219 C 343.246094 708.34375 343.460938 707.355469 343.632812 706.359375 C 343.800781 705.359375 343.914062 704.359375 343.984375 703.351562 C 344.054688 702.347656 344.074219 701.339844 344.042969 700.335938 C 344.011719 699.332031 343.933594 698.332031 343.800781 697.339844 C 343.675781 696.347656 343.496094 695.363281 343.269531 694.390625 C 343.039062 693.417969 342.765625 692.460938 342.441406 691.519531 C 342.121094 690.578125 341.75 689.65625 341.335938 688.753906 C 340.921875 687.847656 340.464844 686.96875 339.960938 686.113281 C 339.457031 685.261719 338.914062 684.433594 338.328125 683.632812 C 337.746094 682.835938 337.117188 682.070312 336.453125 681.332031 Z M 1005.289062 703.003906 C 1005.292969 701.988281 1005.242188 700.976562 1005.140625 699.964844 C 1005.042969 698.953125 1004.890625 697.949219 1004.691406 696.953125 C 1004.496094 695.957031 1004.25 694.972656 1003.953125 694 C 1003.660156 693.027344 1003.316406 692.074219 1002.925781 691.136719 C 1002.539062 690.195312 1002.105469 689.28125 1001.625 688.382812 C 1001.144531 687.488281 1000.625 686.617188 1000.058594 685.773438 C 999.496094 684.929688 998.890625 684.113281 998.246094 683.328125 C 997.601562 682.542969 996.917969 681.792969 996.203125 681.074219 C 995.484375 680.355469 994.730469 679.671875 993.945312 679.027344 C 993.160156 678.382812 992.347656 677.78125 991.5 677.214844 C 990.652344 676.652344 989.785156 676.128906 988.890625 675.652344 C 987.992188 675.171875 987.074219 674.738281 986.132812 674.347656 C 985.199219 673.960938 984.242188 673.617188 983.269531 673.324219 C 982.296875 673.03125 981.3125 672.78125 980.3125 672.585938 C 979.320312 672.386719 978.316406 672.238281 977.304688 672.136719 C 976.292969 672.039062 975.28125 671.988281 974.261719 671.988281 C 973.246094 671.988281 972.234375 672.039062 971.21875 672.136719 C 970.210938 672.238281 969.207031 672.386719 968.210938 672.585938 C 967.210938 672.78125 966.230469 673.03125 965.257812 673.324219 C 964.285156 673.617188 963.328125 673.960938 962.390625 674.347656 C 961.453125 674.738281 960.535156 675.171875 959.640625 675.652344 C 958.742188 676.128906 957.871094 676.652344 957.023438 677.214844 C 956.183594 677.78125 955.367188 678.382812 954.582031 679.027344 C 953.796875 679.671875 953.042969 680.355469 952.324219 681.074219 C 951.605469 681.792969 950.925781 682.542969 950.28125 683.328125 C 949.636719 684.113281 949.03125 684.929688 948.464844 685.773438 C 947.902344 686.617188 947.378906 687.488281 946.902344 688.382812 C 946.421875 689.28125 945.988281 690.195312 945.597656 691.136719 C 945.210938 692.074219 944.867188 693.027344 944.570312 694 C 944.277344 694.972656 944.027344 695.957031 943.832031 696.953125 C 943.632812 697.949219 943.484375 698.953125 943.386719 699.964844 C 943.289062 700.976562 943.234375 701.988281 943.234375 703.003906 C 943.234375 704.019531 943.289062 705.035156 943.386719 706.042969 C 943.484375 707.054688 943.632812 708.058594 943.832031 709.054688 C 944.027344 710.050781 944.277344 711.035156 944.570312 712.007812 C 944.867188 712.980469 945.207031 713.933594 945.59375 714.875 C 945.984375 715.8125 946.417969 716.730469 946.898438 717.625 C 947.375 718.519531 947.898438 719.390625 948.460938 720.234375 C 949.027344 721.082031 949.632812 721.894531 950.277344 722.679688 C 950.921875 723.464844 951.601562 724.21875 952.320312 724.9375 C 953.039062 725.65625 953.792969 726.335938 954.578125 726.980469 C 955.363281 727.625 956.175781 728.230469 957.019531 728.792969 C 957.867188 729.359375 958.738281 729.878906 959.636719 730.359375 C 960.53125 730.835938 961.449219 731.269531 962.386719 731.660156 C 963.324219 732.046875 964.285156 732.390625 965.257812 732.683594 C 966.226562 732.980469 967.210938 733.226562 968.210938 733.425781 C 969.207031 733.621094 970.210938 733.773438 971.21875 733.871094 C 972.234375 733.972656 973.246094 734.019531 974.261719 734.019531 C 975.28125 734.019531 976.292969 733.972656 977.304688 733.871094 C 978.316406 733.773438 979.320312 733.621094 980.3125 733.425781 C 981.3125 733.226562 982.296875 732.980469 983.269531 732.683594 C 984.242188 732.390625 985.199219 732.046875 986.132812 731.660156 C 987.074219 731.269531 987.992188 730.835938 988.890625 730.359375 C 989.785156 729.878906 990.652344 729.359375 991.5 728.792969 C 992.347656 728.230469 993.160156 727.625 993.945312 726.980469 C 994.730469 726.335938 995.484375 725.65625 996.203125 724.9375 C 996.917969 724.21875 997.601562 723.464844 998.246094 722.679688 C 998.890625 721.894531 999.496094 721.082031 1000.058594 720.234375 C 1000.625 719.390625 1001.144531 718.519531 1001.625 717.625 C 1002.105469 716.730469 1002.539062 715.8125 1002.925781 714.875 C 1003.316406 713.933594 1003.660156 712.980469 1003.953125 712.007812 C 1004.25 711.035156 1004.496094 710.050781 1004.691406 709.054688 C 1004.890625 708.058594 1005.042969 707.054688 1005.140625 706.042969 C 1005.242188 705.035156 1005.292969 704.019531 1005.289062 703.003906 Z M 834.949219 784.769531 C 826.773438 740.769531 800.246094 714.835938 755.371094 706.972656 C 717.46875 700.273438 677.507812 697.765625 635.488281 699.449219 C 585.75 701.40625 535.34375 706.40625 495.140625 724.695312 C 469.304688 736.40625 451.503906 755.367188 441.746094 781.574219 C 441.523438 782.167969 441.421875 782.785156 441.429688 783.417969 C 441.433594 784.050781 441.554688 784.660156 441.789062 785.25 C 442.019531 785.839844 442.351562 786.367188 442.78125 786.835938 C 443.207031 787.304688 443.707031 787.679688 444.273438 787.964844 C 446.265625 788.925781 449.304688 789.628906 453.394531 790.074219 C 474.835938 792.445312 501.722656 794.09375 534.054688 795.023438 C 595.011719 796.808594 666.703125 796.601562 749.136719 794.402344 C 778.890625 793.648438 806.480469 791.828125 831.910156 788.941406 C 832.148438 788.914062 832.382812 788.863281 832.609375 788.789062 C 832.835938 788.710938 833.054688 788.613281 833.261719 788.492188 C 833.46875 788.371094 833.664062 788.226562 833.839844 788.066406 C 834.023438 787.90625 834.183594 787.726562 834.324219 787.53125 C 834.46875 787.335938 834.589844 787.125 834.6875 786.90625 C 834.789062 786.683594 834.867188 786.453125 834.921875 786.214844 C 834.972656 785.980469 835.003906 785.738281 835.007812 785.496094 C 835.011719 785.25 834.992188 785.007812 834.949219 784.769531 Z M 711.394531 853.238281 C 711.390625 853.054688 711.355469 852.875 711.285156 852.707031 C 711.210938 852.535156 711.113281 852.386719 710.980469 852.253906 C 710.851562 852.125 710.699219 852.027344 710.527344 851.957031 C 710.355469 851.886719 710.179688 851.851562 709.996094 851.851562 L 563.207031 852.363281 C 563.023438 852.363281 562.84375 852.402344 562.671875 852.472656 C 562.503906 852.542969 562.351562 852.644531 562.222656 852.777344 C 562.09375 852.90625 561.992188 853.058594 561.925781 853.226562 C 561.855469 853.398438 561.820312 853.574219 561.824219 853.761719 L 562.046875 919.398438 C 562.046875 919.582031 562.082031 919.761719 562.152344 919.929688 C 562.222656 920.101562 562.328125 920.253906 562.457031 920.382812 C 562.585938 920.511719 562.738281 920.613281 562.910156 920.683594 C 563.082031 920.75 563.257812 920.785156 563.445312 920.785156 L 710.230469 920.273438 C 710.417969 920.273438 710.59375 920.238281 710.761719 920.164062 C 710.933594 920.09375 711.082031 919.992188 711.210938 919.863281 C 711.34375 919.730469 711.445312 919.582031 711.511719 919.410156 C 711.582031 919.238281 711.617188 919.0625 711.617188 918.878906 Z M 711.394531 853.238281 " fill-opacity="1" fill-rule="nonzero"/><path fill="#e7e8e7" d="M 639.246094 346.835938 C 701.660156 346.734375 763.664062 346.78125 826.234375 351.472656 C 852.621094 353.480469 874.0625 353.945312 887.617188 372.546875 C 896.070312 384.121094 903.234375 397.585938 909.109375 412.9375 C 921.515625 445.363281 932.664062 477.253906 942.5625 508.613281 C 942.628906 508.828125 942.640625 509.050781 942.601562 509.273438 C 942.5625 509.496094 942.476562 509.699219 942.335938 509.875 C 942.195312 510.054688 942.023438 510.195312 941.816406 510.289062 C 941.613281 510.382812 941.394531 510.425781 941.167969 510.417969 C 913.714844 508.734375 888.785156 507.976562 866.382812 508.148438 C 857.003906 508.253906 781.394531 508.425781 639.554688 508.664062 C 497.714844 508.9375 422.105469 509.058594 412.726562 509.027344 C 390.320312 508.921875 365.394531 509.765625 337.941406 511.550781 C 337.710938 511.558594 337.496094 511.519531 337.292969 511.421875 C 337.089844 511.328125 336.914062 511.191406 336.777344 511.011719 C 336.636719 510.832031 336.546875 510.628906 336.507812 510.40625 C 336.464844 510.183594 336.480469 509.964844 336.550781 509.746094 C 346.339844 478.351562 357.371094 446.410156 369.636719 413.917969 C 375.441406 398.5625 382.558594 385.082031 390.976562 373.472656 C 404.476562 354.820312 425.921875 354.253906 452.257812 352.195312 C 514.878906 347.25 576.882812 346.9375 639.246094 346.835938 Z M 639.246094 346.835938 " fill-opacity="1" fill-rule="nonzero"/><path fill="#ffffff" d="M 1036.058594 658.488281 C 1003.070312 597.953125 907.363281 628.453125 899.320312 691.566406 C 889.632812 766.890625 983.949219 809.035156 1033.171875 750.507812 C 1033.429688 750.214844 1033.75 750.03125 1034.128906 749.953125 C 1034.511719 749.875 1034.882812 749.917969 1035.234375 750.085938 C 1035.585938 750.253906 1035.851562 750.511719 1036.03125 750.855469 C 1036.214844 751.199219 1036.273438 751.566406 1036.210938 751.949219 C 1031.125 780.082031 1025.320312 801.71875 1018.789062 816.867188 C 1004.304688 850.5625 956.117188 856.074219 921.789062 860.195312 C 872.378906 866.105469 818.570312 870.105469 760.363281 872.203125 C 760.210938 872.207031 760.058594 872.199219 759.910156 872.171875 C 759.757812 872.144531 759.613281 872.097656 759.46875 872.039062 C 759.328125 871.976562 759.195312 871.898438 759.074219 871.808594 C 758.949219 871.71875 758.839844 871.613281 758.738281 871.496094 C 758.640625 871.378906 758.554688 871.253906 758.484375 871.117188 C 758.414062 870.980469 758.359375 870.835938 758.320312 870.6875 C 758.285156 870.539062 758.261719 870.390625 758.257812 870.234375 C 758.257812 870.082031 758.273438 869.929688 758.300781 869.78125 C 760.226562 860.847656 760.105469 851.9375 757.945312 843.039062 C 757.910156 842.902344 757.890625 842.757812 757.886719 842.613281 C 757.886719 842.46875 757.898438 842.328125 757.925781 842.1875 C 757.957031 842.046875 758.003906 841.910156 758.066406 841.78125 C 758.125 841.648438 758.203125 841.527344 758.292969 841.414062 C 758.382812 841.304688 758.484375 841.203125 758.597656 841.113281 C 758.714844 841.023438 758.835938 840.949219 758.96875 840.890625 C 759.097656 840.832031 759.234375 840.785156 759.375 840.757812 C 759.515625 840.730469 759.65625 840.71875 759.800781 840.722656 C 791.550781 841.441406 823.214844 838.523438 854.789062 831.964844 C 862.246094 830.417969 869.359375 825.78125 876.128906 818.050781 C 877.296875 816.75 878.105469 815.253906 878.550781 813.570312 C 890.972656 765.914062 868.964844 721.605469 831.855469 691.980469 C 777.324219 648.390625 693.519531 651.792969 631.207031 653.027344 C 548.226562 654.625 434.632812 671.835938 399.171875 761.277344 C 390.152344 784.101562 389.839844 815.269531 414.582031 826.964844 C 425.953125 832.394531 438.875 835.914062 453.339844 837.527344 C 476.324219 840.105469 495.980469 841.410156 512.300781 841.441406 C 512.6875 841.441406 513.0625 841.519531 513.425781 841.667969 C 513.78125 841.816406 514.097656 842.027344 514.378906 842.304688 C 514.648438 842.578125 514.863281 842.894531 515.011719 843.257812 C 515.160156 843.617188 515.234375 843.992188 515.238281 844.378906 L 515.238281 868.027344 C 515.238281 868.425781 515.160156 868.804688 515.011719 869.171875 C 514.859375 869.539062 514.644531 869.859375 514.363281 870.140625 C 514.085938 870.421875 513.761719 870.636719 513.394531 870.789062 C 513.023438 870.941406 512.644531 871.015625 512.25 871.015625 C 468.714844 870.984375 427.894531 869.507812 389.789062 866.585938 C 357.523438 864.113281 277.222656 851.59375 264.699219 817.484375 C 259.921875 804.46875 254.511719 781.625 248.464844 748.960938 C 248.40625 748.683594 248.433594 748.417969 248.550781 748.15625 C 248.671875 747.898438 248.855469 747.703125 249.105469 747.566406 C 249.355469 747.429688 249.621094 747.378906 249.902344 747.417969 C 250.183594 747.457031 250.425781 747.578125 250.628906 747.777344 C 251.867188 748.980469 255.027344 752.257812 260.113281 757.617188 C 279.644531 778.125 310.824219 783.636719 335.617188 775.394531 C 409.835938 750.765625 408.394531 633.554688 322.890625 626.804688 C 289.28125 624.160156 263.789062 636.148438 246.402344 662.765625 C 246.355469 662.871094 246.277344 662.941406 246.171875 662.976562 C 246.070312 663.011719 245.964844 663.003906 245.863281 662.949219 C 245.761719 662.894531 245.6875 662.808594 245.640625 662.695312 C 245.597656 662.578125 245.59375 662.464844 245.628906 662.355469 C 250.679688 648.496094 255.679688 629.792969 261.347656 620.3125 C 280.796875 587.957031 307.132812 568.226562 340.359375 561.113281 C 358.914062 557.128906 385.21875 555.136719 419.269531 555.136719 C 645.875 555.105469 800.496094 555.210938 883.132812 555.449219 C 907.046875 555.550781 948.539062 556.066406 971.832031 567.914062 C 995.4375 579.902344 1012.585938 596.082031 1023.269531 616.449219 C 1025.917969 621.464844 1030.332031 635.410156 1036.515625 658.285156 C 1036.550781 658.421875 1036.5 658.523438 1036.371094 658.578125 C 1036.242188 658.636719 1036.136719 658.609375 1036.054688 658.488281 Z M 1036.058594 658.488281 " fill-opacity="1" fill-rule="nonzero"/><path fill="#ffffff" d="M 336.449219 681.335938 C 337.113281 682.070312 337.738281 682.839844 338.324219 683.636719 C 338.910156 684.433594 339.457031 685.261719 339.957031 686.117188 C 340.460938 686.972656 340.921875 687.851562 341.335938 688.753906 C 341.75 689.660156 342.117188 690.582031 342.4375 691.523438 C 342.761719 692.464844 343.039062 693.421875 343.265625 694.394531 C 343.492188 695.367188 343.667969 696.351562 343.796875 697.34375 C 343.929688 698.335938 344.007812 699.335938 344.039062 700.339844 C 344.070312 701.34375 344.050781 702.351562 343.980469 703.355469 C 343.914062 704.359375 343.792969 705.363281 343.628906 706.363281 C 343.460938 707.359375 343.246094 708.347656 342.980469 709.328125 C 342.71875 710.308594 342.40625 711.273438 342.046875 712.226562 C 341.6875 713.179688 341.285156 714.117188 340.835938 715.03125 C 340.386719 715.949219 339.894531 716.84375 339.359375 717.714844 C 338.824219 718.585938 338.25 719.429688 337.628906 720.25 C 337.015625 721.066406 336.359375 721.855469 335.667969 722.609375 C 334.972656 723.367188 334.246094 724.089844 333.484375 724.777344 C 332.722656 725.464844 331.933594 726.113281 331.109375 726.726562 C 330.289062 727.339844 329.4375 727.910156 328.558594 728.441406 C 327.683594 728.972656 326.785156 729.460938 325.863281 729.90625 C 324.941406 730.351562 324 730.75 323.039062 731.101562 C 322.085938 731.457031 321.113281 731.765625 320.128906 732.023438 C 319.144531 732.285156 318.152344 732.496094 317.148438 732.660156 C 316.148438 732.824219 315.140625 732.9375 314.132812 733.003906 C 313.121094 733.066406 312.113281 733.085938 311.105469 733.050781 C 310.097656 733.019531 309.09375 732.9375 308.097656 732.804688 C 307.101562 732.671875 306.113281 732.492188 305.136719 732.261719 C 304.164062 732.035156 303.203125 731.757812 302.257812 731.433594 C 301.3125 731.109375 300.386719 730.738281 299.480469 730.324219 C 298.578125 729.90625 297.699219 729.449219 296.839844 728.945312 C 295.984375 728.441406 295.15625 727.894531 294.355469 727.308594 C 293.554688 726.722656 292.789062 726.097656 292.054688 725.433594 C 291.316406 724.769531 290.617188 724.070312 289.953125 723.332031 C 289.289062 722.597656 288.664062 721.832031 288.078125 721.03125 C 287.492188 720.234375 286.945312 719.40625 286.441406 718.554688 C 285.9375 717.699219 285.476562 716.820312 285.0625 715.917969 C 284.648438 715.015625 284.277344 714.089844 283.957031 713.148438 C 283.636719 712.207031 283.359375 711.25 283.136719 710.277344 C 282.90625 709.304688 282.730469 708.320312 282.597656 707.328125 C 282.46875 706.335938 282.390625 705.335938 282.359375 704.332031 C 282.328125 703.324219 282.347656 702.320312 282.417969 701.316406 C 282.484375 700.308594 282.605469 699.308594 282.769531 698.308594 C 282.9375 697.3125 283.152344 696.324219 283.414062 695.34375 C 283.679688 694.363281 283.992188 693.394531 284.351562 692.445312 C 284.710938 691.488281 285.113281 690.554688 285.5625 689.640625 C 286.011719 688.722656 286.503906 687.828125 287.039062 686.957031 C 287.578125 686.085938 288.152344 685.242188 288.769531 684.421875 C 289.386719 683.605469 290.042969 682.816406 290.734375 682.0625 C 291.429688 681.304688 292.15625 680.582031 292.917969 679.894531 C 293.679688 679.207031 294.472656 678.558594 295.292969 677.945312 C 296.117188 677.332031 296.964844 676.761719 297.839844 676.230469 C 298.71875 675.699219 299.617188 675.210938 300.539062 674.765625 C 301.457031 674.320312 302.398438 673.921875 303.355469 673.566406 C 304.3125 673.214844 305.285156 672.90625 306.269531 672.644531 C 307.253906 672.386719 308.246094 672.171875 309.246094 672.011719 C 310.25 671.847656 311.257812 671.734375 312.269531 671.667969 C 313.277344 671.601562 314.285156 671.585938 315.292969 671.617188 C 316.300781 671.652344 317.304688 671.734375 318.300781 671.867188 C 319.300781 672 320.285156 672.179688 321.257812 672.410156 C 322.234375 672.636719 323.195312 672.914062 324.140625 673.238281 C 325.085938 673.5625 326.007812 673.929688 326.914062 674.347656 C 327.820312 674.761719 328.703125 675.222656 329.558594 675.726562 C 330.417969 676.230469 331.246094 676.773438 332.042969 677.359375 C 332.84375 677.949219 333.613281 678.574219 334.347656 679.238281 C 335.085938 679.902344 335.785156 680.601562 336.449219 681.335938 Z M 336.449219 681.335938 " fill-opacity="1" fill-rule="nonzero"/><path fill="#ffffff" d="M 1005.292969 703.003906 C 1005.292969 704.019531 1005.242188 705.035156 1005.144531 706.042969 C 1005.042969 707.054688 1004.894531 708.058594 1004.695312 709.054688 C 1004.496094 710.050781 1004.25 711.035156 1003.957031 712.007812 C 1003.660156 712.980469 1003.316406 713.933594 1002.929688 714.875 C 1002.539062 715.8125 1002.105469 716.730469 1001.628906 717.625 C 1001.148438 718.523438 1000.628906 719.390625 1000.0625 720.238281 C 999.5 721.082031 998.894531 721.894531 998.246094 722.679688 C 997.601562 723.46875 996.917969 724.21875 996.203125 724.9375 C 995.484375 725.65625 994.730469 726.335938 993.945312 726.980469 C 993.160156 727.625 992.347656 728.230469 991.5 728.792969 C 990.652344 729.359375 989.785156 729.878906 988.890625 730.359375 C 987.992188 730.839844 987.074219 731.273438 986.132812 731.660156 C 985.199219 732.050781 984.242188 732.390625 983.269531 732.6875 C 982.296875 732.980469 981.3125 733.226562 980.3125 733.425781 C 979.320312 733.625 978.316406 733.773438 977.304688 733.871094 C 976.292969 733.972656 975.28125 734.023438 974.261719 734.023438 C 973.246094 734.023438 972.234375 733.972656 971.21875 733.871094 C 970.207031 733.773438 969.203125 733.625 968.207031 733.425781 C 967.210938 733.226562 966.226562 732.980469 965.253906 732.6875 C 964.28125 732.390625 963.324219 732.050781 962.386719 731.660156 C 961.445312 731.273438 960.527344 730.839844 959.632812 730.359375 C 958.734375 729.878906 957.867188 729.359375 957.019531 728.792969 C 956.175781 728.230469 955.363281 727.625 954.578125 726.980469 C 953.792969 726.335938 953.039062 725.65625 952.320312 724.9375 C 951.601562 724.21875 950.921875 723.46875 950.277344 722.679688 C 949.632812 721.894531 949.027344 721.082031 948.460938 720.238281 C 947.898438 719.390625 947.375 718.523438 946.898438 717.625 C 946.417969 716.730469 945.984375 715.8125 945.59375 714.875 C 945.207031 713.933594 944.863281 712.980469 944.566406 712.007812 C 944.273438 711.035156 944.027344 710.050781 943.828125 709.054688 C 943.632812 708.058594 943.480469 707.054688 943.382812 706.042969 C 943.285156 705.035156 943.230469 704.019531 943.230469 703.003906 C 943.230469 701.988281 943.285156 700.976562 943.382812 699.964844 C 943.480469 698.953125 943.628906 697.949219 943.828125 696.953125 C 944.023438 695.957031 944.273438 694.972656 944.566406 694 C 944.863281 693.027344 945.207031 692.070312 945.59375 691.132812 C 945.984375 690.195312 946.417969 689.277344 946.894531 688.382812 C 947.375 687.484375 947.894531 686.617188 948.457031 685.769531 C 949.023438 684.925781 949.632812 684.109375 950.277344 683.324219 C 950.921875 682.539062 951.601562 681.789062 952.320312 681.070312 C 953.039062 680.351562 953.789062 679.671875 954.574219 679.027344 C 955.359375 678.382812 956.175781 677.777344 957.019531 677.214844 C 957.867188 676.648438 958.734375 676.125 959.632812 675.648438 C 960.527344 675.167969 961.445312 674.734375 962.382812 674.347656 C 963.324219 673.957031 964.28125 673.617188 965.253906 673.320312 C 966.226562 673.027344 967.210938 672.78125 968.207031 672.582031 C 969.203125 672.382812 970.207031 672.234375 971.21875 672.136719 C 972.234375 672.035156 973.246094 671.984375 974.261719 671.984375 C 975.28125 671.984375 976.292969 672.035156 977.304688 672.136719 C 978.316406 672.234375 979.320312 672.382812 980.3125 672.582031 C 981.3125 672.78125 982.296875 673.027344 983.269531 673.320312 C 984.242188 673.617188 985.199219 673.957031 986.132812 674.347656 C 987.074219 674.734375 987.992188 675.167969 988.890625 675.648438 C 989.785156 676.125 990.652344 676.648438 991.5 677.214844 C 992.347656 677.777344 993.160156 678.382812 993.945312 679.027344 C 994.730469 679.671875 995.484375 680.351562 996.203125 681.070312 C 996.917969 681.789062 997.601562 682.539062 998.246094 683.324219 C 998.894531 684.109375 999.5 684.925781 1000.0625 685.769531 C 1000.628906 686.617188 1001.148438 687.484375 1001.628906 688.382812 C 1002.105469 689.277344 1002.539062 690.195312 1002.925781 691.132812 C 1003.316406 692.070312 1003.660156 693.027344 1003.953125 694 C 1004.25 694.972656 1004.496094 695.957031 1004.695312 696.953125 C 1004.894531 697.949219 1005.042969 698.953125 1005.144531 699.964844 C 1005.242188 700.976562 1005.292969 701.988281 1005.292969 703.003906 Z M 1005.292969 703.003906 " fill-opacity="1" fill-rule="nonzero"/><path fill="#ffffff" d="M 563.214844 852.363281 L 709.988281 851.851562 C 710.175781 851.847656 710.351562 851.882812 710.523438 851.953125 C 710.695312 852.023438 710.84375 852.125 710.976562 852.253906 C 711.105469 852.386719 711.207031 852.535156 711.28125 852.707031 C 711.351562 852.878906 711.386719 853.054688 711.390625 853.238281 L 711.621094 918.871094 C 711.617188 919.054688 711.582031 919.234375 711.515625 919.40625 C 711.441406 919.574219 711.34375 919.726562 711.210938 919.859375 C 711.082031 919.988281 710.929688 920.089844 710.761719 920.160156 C 710.589844 920.234375 710.414062 920.269531 710.230469 920.269531 L 563.453125 920.78125 C 563.265625 920.78125 563.085938 920.75 562.914062 920.679688 C 562.742188 920.609375 562.59375 920.507812 562.460938 920.378906 C 562.328125 920.246094 562.226562 920.097656 562.15625 919.925781 C 562.085938 919.753906 562.050781 919.578125 562.050781 919.390625 L 561.824219 853.761719 C 561.820312 853.578125 561.855469 853.398438 561.925781 853.226562 C 561.992188 853.054688 562.09375 852.90625 562.226562 852.773438 C 562.355469 852.644531 562.507812 852.542969 562.675781 852.46875 C 562.847656 852.398438 563.027344 852.363281 563.214844 852.363281 Z M 563.214844 852.363281 " fill-opacity="1" fill-rule="nonzero"/><path fill="#adaeb2" d="M 834.945312 784.769531 C 834.992188 785.007812 835.011719 785.25 835.007812 785.496094 C 835 785.738281 834.972656 785.980469 834.917969 786.21875 C 834.867188 786.453125 834.789062 786.683594 834.6875 786.90625 C 834.589844 787.125 834.464844 787.335938 834.324219 787.53125 C 834.179688 787.726562 834.019531 787.90625 833.839844 788.066406 C 833.664062 788.230469 833.472656 788.371094 833.261719 788.492188 C 833.054688 788.613281 832.835938 788.710938 832.609375 788.789062 C 832.378906 788.863281 832.144531 788.914062 831.90625 788.941406 C 806.480469 791.828125 778.886719 793.648438 749.132812 794.402344 C 666.703125 796.601562 595.011719 796.808594 534.054688 795.023438 C 501.722656 794.09375 474.832031 792.445312 453.394531 790.078125 C 449.304688 789.628906 446.261719 788.925781 444.269531 787.964844 C 443.703125 787.679688 443.203125 787.304688 442.777344 786.835938 C 442.347656 786.371094 442.019531 785.839844 441.785156 785.25 C 441.554688 784.664062 441.433594 784.050781 441.425781 783.417969 C 441.417969 782.785156 441.523438 782.167969 441.742188 781.574219 C 451.5 755.367188 469.300781 736.40625 495.140625 724.695312 C 535.34375 706.40625 585.75 701.40625 635.484375 699.449219 C 677.507812 697.765625 717.46875 700.273438 755.367188 706.972656 C 800.242188 714.835938 826.769531 740.769531 834.945312 784.769531 Z M 834.945312 784.769531 " fill-opacity="1" fill-rule="nonzero"/><g clip-path="url(#43a63bfab7)"><path fill="#000000" d="M 1484.644531 1431.96875 L 1193.695312 1141.023438 C 1305.015625 1014.523438 1368.265625 855.132812 1368.265625 685.625 C 1368.265625 308.65625 1062.136719 2.53125 685.167969 2.53125 C 308.203125 2.53125 2.074219 308.65625 2.074219 685.625 C 2.074219 1062.59375 308.203125 1368.722656 685.167969 1368.722656 C 854.679688 1368.722656 1014.066406 1308 1140.566406 1194.152344 L 1431.515625 1485.101562 C 1439.105469 1492.691406 1449.222656 1495.21875 1459.34375 1495.21875 C 1469.464844 1495.21875 1479.582031 1490.160156 1487.171875 1485.101562 C 1499.824219 1469.921875 1499.824219 1447.148438 1484.644531 1431.96875 Z M 685.167969 1292.820312 C 351.210938 1292.820312 77.972656 1019.582031 77.972656 685.625 C 77.972656 351.667969 351.210938 78.429688 685.167969 78.429688 C 1019.125 78.429688 1292.363281 351.667969 1292.363281 685.625 C 1292.363281 1019.582031 1019.125 1292.820312 685.167969 1292.820312 Z M 685.167969 1292.820312 " fill-opacity="1" fill-rule="nonzero"/></g></svg>